<svg xmlns="http://www.w3.org/2000/svg" xmlns:xlink="http://www.w3.org/1999/xlink" version="1.1" width="111.62356pt" height="97.49993pt" viewBox="0 0 111.62356 97.49993">
<g>
<path d="M92.105 15.352C92.664 15.164 94.523 13.957 96.477 11.816L96.57 11.723C96.664 11.535 96.664 11.352 96.664 11.07 96.664 10.605 96.758 10.047 97.129 9.582 97.438 9.273 97.426 8.898 97.414 8.512 97.41 8.438 97.406 8.359 97.406 8.281 97.406 8.203 97.402 8.129 97.398 8.055 97.387 7.762 97.371 7.48 97.594 7.258 97.816 6.961 97.801 6.727 97.785 6.453 97.781 6.383 97.777 6.309 97.777 6.234 97.688 5.953 97.688 5.676 97.871 5.395 98.059 5.117 98.059 4.836 97.965 4.559 97.871 4.281 97.871 4.094 97.965 3.812 98.059 3.723 98.059 3.535 98.152 3.348 98.152 3.164 98.152 3.07 98.059 2.883 97.965 2.605 97.871 2.418 97.871 2.324 98.059 2.141 98.152 1.859 98.246 1.582 98.336 1.395 98.336 1.117 98.43 .93 98.523 .559 98.523 .277 98.523 .277 98.43 .188 98.246 .094 98.059 0H97.594C97.129 .188 96.477 .746 95.734 1.676 95.176 2.512 94.523 3.535 93.777 4.836 92.57 7.164 91.453 9.676 91.082 10.699 90.801 11.535 90.43 12.375 90.152 13.023 90.801 13.676 91.176 14.234 91.547 14.699 91.73 14.887 92.012 15.258 92.105 15.352ZM110.898 36.375C110.711 36.004 110.523 35.539 110.246 35.168 109.5 33.957 108.387 32.84 106.988 32.004 106.898 31.91 106.805 31.91 106.711 31.816 104.012 30.145 102.523 28.84 101.965 28.281 98.523 24.652 97.965 21.398 97.965 21.398 99.734 20.934 99.547 19.352 100.848 18.516 102.152 17.676 102.711 17.023 103.27 16.559 103.828 16.094 103.828 14.793 105.035 14.328 106.246 13.863 105.594 12.465 106.523 11.91 107.453 11.441 106.805 10.418 107.641 9.953 108.086 9.707 108.082 9.355 108.082 9.023 108.082 8.73 108.078 8.453 108.387 8.281 109.129 7.816 108.852 6.605 108.852 6.605 110.152 5.953 110.523 4.652 110.523 4.652 108.664 1.488 98.711 10.512 96.664 12.652 94.617 14.793 92.664 16.188 92.012 16.375 91.672 16.469 91.387 16.066 90.957 15.465 90.555 14.898 90.027 14.164 89.219 13.488 87.637 12 85.684 12.559 84.57 12.934 83.723 13.215 83.094 13.016 81.832 12.621 81.422 12.496 80.949 12.348 80.383 12.188 78.148 11.441 76.289 11.258 76.289 11.258 76.289 11.258 79.172 12 81.59 13.211 84.012 14.422 83.918 16 84.754 17.863 85.684 19.723 86.988 23.816 90.152 26.609 91.641 28.004 93.035 28.469 94.43 28.746 92.613 28.664 90.727 28.656 88.699 28.785 81.789 21.199 72.582 15.652 61.773 13.305 33.68 8.094 6.141 25.957 0 54.055 6.699 38.516 11.535 32.84 20.281 25.957V26.051C20.348 26.18 20.32 26.266 20.301 26.336 20.289 26.367 20.281 26.395 20.281 26.422V26.793C20.281 26.887 20.094 26.98 20.094 26.98 20.094 26.98 19.629 27.258 19.539 27.352V27.633C19.629 27.723 19.629 27.816 19.723 27.91 19.816 28.004 19.816 28.188 19.816 28.188V28.469L19.629 28.84C19.539 28.934 19.539 29.121 19.629 29.211 19.723 29.305 19.723 29.305 19.723 29.398 19.723 29.492 19.816 29.492 19.816 29.586 19.883 29.652 19.855 29.816 19.832 29.938 19.824 29.984 19.816 30.023 19.816 30.051 19.816 30.145 20.004 30.328 20.094 30.234 20.188 30.234 20.188 30.051 20.281 29.492 20.34 29.133 20.324 29.121 20.305 29.105 20.293 29.102 20.281 29.094 20.281 29.027 20.281 28.84 20.281 28.84 20.375 28.562 20.469 28.375 20.375 27.816 20.469 27.445L20.562 27.074C20.562 26.98 20.652 26.516 20.652 26.422 20.652 26.328 20.746 26.145 20.746 25.957 20.84 25.863 20.746 25.863 20.934 25.676 21.027 25.586 20.934 25.492 21.117 25.305 21.211 25.121 21.117 25.211 21.305 25.121 21.367 24.992 21.391 24.996 21.457 25.012 21.488 25.016 21.527 25.027 21.586 25.027 21.77 25.027 21.77 25.027 21.863 25.121 21.906 25.164 21.891 25.207 21.867 25.258 21.844 25.32 21.812 25.391 21.863 25.492 21.863 25.676 21.77 25.77 21.77 25.77 21.77 25.863 21.586 25.957 21.586 25.957 21.586 25.957 21.398 26.145 21.398 26.234 21.398 26.297 21.41 26.34 21.418 26.379 21.438 26.465 21.461 26.547 21.398 26.793V27.445L21.492 27.633C21.547 27.688 21.504 27.742 21.457 27.797 21.426 27.836 21.398 27.875 21.398 27.91 21.398 27.938 21.391 27.977 21.383 28.023 21.359 28.145 21.332 28.309 21.398 28.375 21.492 28.469 21.492 28.84 21.586 28.934 21.676 29.027 21.676 29.305 21.77 29.305 21.832 29.367 21.812 29.68 21.789 29.988 21.781 30.145 21.77 30.297 21.77 30.422 21.828 30.656 21.777 30.742 21.73 30.82 21.703 30.867 21.676 30.91 21.676 30.98 21.676 31.168 21.586 31.168 21.492 31.352 21.398 31.539 21.398 31.539 21.305 31.633 21.305 31.664 21.25 31.758 21.184 31.879 21.055 32.113 20.871 32.438 20.934 32.562 21.027 32.75 21.117 32.934 21.492 33.215 21.863 33.492 21.676 33.305 22.516 33.773 22.996 34.039 22.984 34.031 22.941 33.992 22.91 33.961 22.859 33.918 22.98 33.957 23.258 34.051 23.074 34.145 23.074 34.145 23.074 34.145 23.258 34.238 23.352 34.328 23.445 34.422 23.629 34.422 23.723 34.422 23.816 34.422 24.004 34.609 24.098 34.703 24.188 34.793 25.121 35.168 25.398 35.168 25.676 35.168 25.586 35.168 25.863 35.074 26.145 34.98 26.051 34.887 26.145 34.793 26.605 34.742 26.812 34.719 27.016 34.742 27.18 34.758 27.34 34.805 27.633 34.887 28.066 35.012 28.086 35.055 28.105 35.094 28.117 35.117 28.129 35.137 28.191 35.168 28.375 35.352 28.375 35.352 28.469 35.539 28.562 35.727 28.562 35.816 28.656 35.91 28.84 36.004 28.84 36.285 29.027 36.375 29.121 36.469 29.68 36.75 30.051 36.75 30.422 36.75 30.234 36.75 30.422 36.84 30.703 36.934 30.609 37.027 30.793 37.121 30.98 37.215 31.168 37.398 31.258 37.398 31.352 37.398 31.727 37.309 31.816 37.309 31.91 37.309 31.816 37.492 31.816 37.492V37.586C31.816 37.68 31.91 38.051 31.91 38.051 31.91 38.051 32.375 38.887 32.469 38.887 32.562 38.98 32.562 39.168 32.656 39.168 32.715 39.168 32.699 39.242 32.652 39.445 32.629 39.559 32.594 39.711 32.562 39.91 32.512 40.223 32.516 40.215 32.547 40.18 32.574 40.152 32.613 40.109 32.656 40.191 32.75 40.375 32.656 40.375 32.934 40.469 33.121 40.562 33.027 40.469 33.773 40.844 34.035 40.973 34.109 41.012 34.109 41.016 34.109 41.016 34.094 41.012 34.074 41.004 34.004 40.98 33.863 40.934 33.957 41.027 34.145 41.215 34.051 41.309 34.145 41.398 34.238 41.492 34.328 41.586 34.422 41.492 34.609 41.398 34.609 41.586 34.609 41.586 34.609 41.586 35.445 41.957 35.727 42.145 36.004 42.332 35.91 42.145 36.098 42.422 36.273 42.602 36.227 42.664 36.191 42.711 36.172 42.738 36.156 42.762 36.191 42.797L36.285 42.891C36.285 42.891 36.375 42.891 36.562 42.98 36.75 42.98 36.75 42.98 36.84 42.891 36.902 42.828 36.883 42.766 36.836 42.621 36.812 42.547 36.781 42.453 36.75 42.332 36.695 42.117 36.703 42.117 36.738 42.121 36.762 42.125 36.801 42.129 36.84 42.051 36.934 41.867 36.934 41.867 37.027 41.773 37.121 41.68 37.121 41.68 37.215 41.68 37.32 41.625 37.398 41.664 37.48 41.707 37.539 41.738 37.602 41.773 37.68 41.773 37.863 41.867 37.863 41.773 38.051 41.957 38.223 42.074 38.184 42.117 38.148 42.156 38.129 42.18 38.109 42.203 38.145 42.238L38.238 42.703C38.301 43.027 38.23 43.035 38.184 43.043 38.16 43.043 38.145 43.047 38.145 43.074 38.145 43.168 38.238 43.262 38.516 43.727 38.633 44.012 38.605 43.98 38.566 43.938 38.543 43.91 38.516 43.875 38.516 43.914 38.516 44.004 38.238 45.027 38.145 45.586 38.051 46.145 38.238 46.051 38.238 46.051 38.238 46.051 38.332 46.145 38.238 46.238 38.238 46.426 37.957 46.516 37.863 46.609 37.773 46.703 37.68 46.703 37.68 46.703 37.68 46.703 37.309 46.98 37.215 46.98 37.121 47.074 37.027 46.98 36.934 47.074 36.84 47.074 36.75 47.168 36.656 47.355L36.562 47.539C36.469 47.633 36.375 47.727 36.469 47.82 36.469 47.914 36.285 48.004 36.285 48.004 36.285 48.098 36.004 48.098 35.91 48.004 35.727 47.914 35.633 48.098 35.633 48.098 35.539 48.191 35.262 48.285 35.074 48.562L34.98 48.75C34.98 48.844 34.793 48.938 34.793 49.027 34.793 49.121 34.516 49.309 34.422 49.496 34.422 49.496 34.238 49.867 34.238 49.961 34.238 50.145 34.051 50.426 34.051 50.52 34.051 50.535 34.047 50.551 34.047 50.574 34.031 50.68 34.004 50.859 34.238 51.168 34.402 51.445 34.402 51.426 34.418 51.348 34.426 51.293 34.441 51.207 34.516 51.168 34.703 51.168 34.887 51.074 34.98 51.074H35.074C35.133 51.074 35.012 51.398 34.91 51.664 34.848 51.828 34.793 51.973 34.793 52.008 34.703 52.098 33.957 52.285 33.863 52.285 33.773 52.285 33.586 52.473 33.586 52.473 33.586 52.473 33.215 53.121 33.305 53.309 33.305 53.344 33.305 53.375 33.301 53.406 33.285 53.527 33.27 53.66 33.492 54.332 33.605 54.832 33.613 54.801 33.645 54.715 33.668 54.656 33.695 54.574 33.773 54.609 33.863 54.703 33.863 54.797 34.145 55.078 34.422 55.262 34.238 55.262 34.422 55.449 34.609 55.633 34.516 55.727 34.609 55.727 34.703 55.82 35.168 57.59 35.074 57.773 35.074 57.961 35.074 58.148 35.168 58.891 35.223 59.293 35.281 59.27 35.363 59.234 35.41 59.215 35.469 59.191 35.539 59.262 35.727 59.449 35.539 59.637 35.539 59.637 35.539 59.637 35.539 59.914 35.633 59.914 35.633 60.008 35.816 60.191 35.91 60.379 36.098 60.566 36.004 60.566 36.098 60.844 36.156 60.965 36.141 61.047 36.121 61.137 36.109 61.188 36.098 61.242 36.098 61.309 36.098 61.379 36.082 61.426 36.07 61.461 36.055 61.523 36.039 61.566 36.098 61.684 36.098 61.773 36.098 62.055 36.191 62.148 36.285 62.238 36.285 62.426 36.375 62.426 36.469 62.426 36.562 62.613 36.562 62.613L36.656 62.797C36.656 62.797 36.469 62.613 36.934 63.262 37.211 63.648 37.223 63.609 37.25 63.555 37.266 63.516 37.285 63.465 37.398 63.543 37.68 63.637 37.68 63.82 37.773 63.914 37.957 64.008 38.703 64.473 39.168 64.75 39.539 65.031 39.539 65.309 40.191 65.773 40.613 66.137 40.527 66.148 40.414 66.16 40.352 66.168 40.285 66.176 40.285 66.242 40.285 66.426 40.562 66.984 40.562 67.172 40.621 67.285 40.605 67.367 40.59 67.477 40.578 67.543 40.562 67.621 40.562 67.73 40.562 68.008 40.469 68.102 40.469 68.473 40.469 68.844 40.285 68.938 40.285 69.125V69.312C40.285 69.312 40.191 69.684 40.098 69.961 40.004 70.242 40.004 70.336 40.004 70.52 40.004 70.707 39.727 71.266 39.727 72.008 39.727 72.473 39.727 72.473 39.633 72.473 39.633 72.566 39.445 73.125 39.445 73.219 39.445 73.312 39.355 73.684 39.262 74.055 39.168 74.426 38.98 74.426 38.98 74.52 38.98 74.613 38.797 74.801 38.703 74.984 38.609 75.078 38.516 75.359 38.516 75.543 38.516 75.73 38.332 76.289 38.332 76.289L38.238 76.566C38.238 76.66 38.051 77.219 37.957 77.496 37.863 77.777 37.863 78.055 37.957 78.242 37.957 78.43 37.957 78.707 38.051 78.801 38.051 78.895 37.957 79.266 37.957 79.453 37.957 79.543 37.863 79.73 37.863 79.73 37.863 79.824 37.586 80.566 37.586 80.66 37.586 80.754 37.398 81.125 37.215 81.219 37.121 81.312 37.027 81.406 37.027 81.59 37.027 81.684 36.84 81.965 36.75 82.055 36.656 82.148 36.656 82.242 36.562 82.43L36.375 82.801C42.516 81.312 49.027 79.172 55.727 76.289 59.727 74.52 63.637 72.66 67.172 70.707 67.266 70.336 67.449 69.496 67.543 69.219 67.637 68.938 67.543 69.125 67.73 68.754 67.793 68.629 67.812 68.578 67.82 68.559 67.82 68.555 67.82 68.551 67.82 68.551V68.555C67.82 68.566 67.82 68.613 67.914 68.566 68.008 68.473 68.102 68.473 68.289 68.473 68.473 68.379 68.473 68.473 68.566 68.379 68.66 68.379 68.754 68.289 68.844 68.195 68.938 68.102 69.031 67.914 69.125 67.82 69.219 67.73 69.312 67.543 69.402 67.449 69.496 67.355 69.684 67.172 69.961 67.078 70.148 66.984 71.172 66.332 71.266 66.242 71.449 66.148 71.543 65.961 71.637 65.867 71.73 65.773 71.73 65.867 71.824 65.773 71.824 65.684 71.824 65.684 72.008 65.59 72.156 65.441 72.129 65.297 72.109 65.195 72.105 65.168 72.102 65.145 72.102 65.125 72.195 65.031 72.754 63.543 72.754 63.449 72.754 63.355 72.754 63.172 72.848 63.078 72.848 62.984 72.848 62.707 72.754 62.613 72.754 62.52 72.195 62.148 72.195 62.148L71.73 61.961 71.543 61.867C71.543 61.867 71.266 61.684 71.266 61.59 71.266 61.496 70.984 61.215 70.984 61.215 70.984 61.215 70.52 60.102 70.52 60.008 70.52 59.914 70.242 59.82 70.242 59.82 70.242 59.82 70.242 59.637 70.148 59.543 70.055 59.449 70.055 59.355 69.961 59.355 69.867 59.355 68.844 58.703 68.844 58.703H68.473C68.473 58.703 68.008 58.613 67.914 58.52 67.914 58.426 67.73 58.426 67.637 58.332 67.543 58.238 67.449 58.238 67.449 58.238 67.449 58.238 66.332 57.68 66.242 57.68 66.148 57.68 65.961 57.68 65.867 57.59 65.816 57.535 65.852 57.512 65.895 57.488 65.926 57.465 65.961 57.441 65.961 57.402 66.016 57.348 65.945 57.297 65.879 57.242 65.828 57.203 65.777 57.164 65.777 57.125V56.938C65.777 56.844 65.684 56.75 65.684 56.75L65.59 56.656 65.402 56.566 65.125 56.102C65.125 56.102 65.031 56.008 64.938 56.008 64.844 56.008 64.754 55.914 64.754 55.914L64.379 55.633C64.195 55.543 64.195 55.543 64.102 55.543 64.008 55.543 63.914 55.449 63.82 55.355 63.73 55.262 63.637 55.262 63.543 55.262 63.449 55.168 63.355 55.262 63.262 55.168 63.172 55.168 63.172 55.262 63.078 55.355 62.984 55.449 62.797 55.543 62.707 55.543 62.613 55.543 62.52 55.633 62.52 55.633L61.867 55.82H61.215L60.938 55.633 60.75 55.355V54.609C60.75 54.52 60.66 54.426 60.566 54.332 60.473 54.238 60.566 54.055 60.566 54.055L61.031 53.586C61.125 53.586 61.309 53.496 61.402 53.402 61.496 53.402 61.59 53.215 61.59 53.215L61.961 52.562C61.961 52.562 61.961 52.379 61.867 52.191 61.773 52.098 61.773 52.098 61.773 51.914 61.684 51.727 61.684 51.539 61.59 51.449 61.59 51.355 61.309 50.145 61.309 50.145 61.309 50.145 61.125 49.961 61.125 49.773 61.125 49.68 61.031 49.586 60.938 49.496 60.844 49.402 60.75 49.215 60.66 49.215 60.66 49.121 59.914 48.562 59.82 48.379 59.637 48.285 59.449 48.285 59.449 48.191 59.355 48.098 59.262 48.098 59.172 48.004 59.078 47.914 58.984 47.914 58.984 47.914L58.238 47.727C58.148 47.727 56.938 47.168 56.844 47.168L56.656 46.98C56.566 46.891 56.566 46.609 56.473 46.516 56.379 46.426 55.82 46.051 55.727 46.051 55.68 46.004 55.656 45.98 55.656 45.957 55.656 45.938 55.68 45.914 55.727 45.867 55.727 45.773 55.633 45.68 55.633 45.586 55.633 45.492 55.449 45.309 55.262 45.215 55.168 45.027 54.797 44.934 54.797 44.844 54.797 44.75 54.52 44.75 54.426 44.656 54.332 44.562 54.238 44.656 54.238 44.656 54.238 44.656 54.055 44.562 53.961 44.562 53.867 44.469 53.961 44.191 54.055 44.191 54.055 44.098 53.773 43.633 53.68 43.445L53.496 43.262C53.402 43.168 53.121 43.168 53.031 43.168 52.938 43.168 52.844 43.168 52.75 43.074 52.645 43.074 52.66 43.043 52.691 42.98 52.719 42.938 52.75 42.875 52.75 42.797 52.75 42.609 52.75 42.516 52.656 42.422 52.566 42.422 51.82 42.332 51.727 42.332 51.633 42.332 51.543 42.238 51.449 42.238 51.355 42.238 51.355 42.332 51.262 42.332 51.234 42.332 51.207 42.34 51.176 42.348 51.105 42.371 51.02 42.395 50.891 42.332H50.52C50.332 42.332 49.773 42.238 49.68 42.145 49.586 42.051 49.586 42.051 49.309 41.957 49.121 41.867 48.938 41.867 48.844 41.773L48.473 41.68C48.277 41.613 48.219 41.641 48.168 41.66 48.148 41.672 48.129 41.68 48.098 41.68 48.004 41.586 47.914 41.586 47.82 41.492 47.762 41.438 47.777 41.414 47.793 41.383 47.805 41.363 47.82 41.344 47.82 41.309 47.82 41.215 47.727 41.121 47.727 41.027 47.727 40.934 47.539 41.027 47.168 40.844 46.871 40.723 46.879 40.719 46.898 40.707 46.906 40.699 46.922 40.688 46.891 40.656 46.891 40.562 46.703 40.469 46.703 40.375 46.609 40.285 46.426 40.375 46.426 40.375L46.516 40.656H45.492C45.309 40.656 45.309 40.75 45.309 40.75 45.309 40.75 45.121 40.844 45.121 40.934V41.68C45.215 41.867 45.121 42.145 45.121 42.145L44.938 42.332 44.656 42.422C44.656 42.422 44.379 42.332 44.379 42.238 44.379 42.145 44.285 41.957 44.285 41.867V41.492C44.285 41.398 44.379 41.309 44.469 41.215L45.027 40.656C45.027 40.656 44.938 40.562 44.938 40.375 44.938 40.285 45.027 40.191 45.027 40.191 45.121 40.191 45.215 40.098 45.309 40.004 45.402 40.004 45.492 39.82 45.492 39.727 45.492 39.633 45.215 39.633 45.121 39.539H44.938C44.844 39.539 44.656 39.633 44.656 39.633L44.379 39.82 44.004 40.004C44.004 40.004 43.82 40.004 43.82 40.098 43.727 40.098 43.633 40.191 43.539 40.191 43.445 40.191 43.262 40.285 43.262 40.285H42.797C42.797 40.285 42.703 40.285 42.609 40.375 42.609 40.469 42.422 40.469 42.422 40.469 42.422 40.469 42.145 40.562 42.051 40.562 41.957 40.562 41.867 40.469 41.773 40.469 41.68 40.469 41.586 40.469 41.398 40.562 41.215 40.562 41.121 40.656 41.121 40.75 41.121 40.844 41.121 40.844 41.027 41.027L40.934 41.309C40.934 41.398 40.844 41.398 40.75 41.492 40.656 41.586 40.379 41.773 40.285 41.773 40.191 41.773 40.191 41.867 40.191 41.867 40.191 41.867 40.004 42.051 40.004 42.145 40.004 42.238 39.727 42.422 39.633 42.516L39.539 42.609C39.539 42.609 39.445 42.609 39.355 42.422 39.211 42.281 39.23 42.195 39.25 42.117 39.254 42.094 39.262 42.074 39.262 42.051 39.262 41.957 39.074 41.773 38.98 41.773 38.98 41.68 38.797 41.492 38.703 41.492 38.609 41.492 38.332 41.309 38.332 41.309 38.332 41.309 37.309 41.309 37.121 41.398 37.004 41.457 36.996 41.445 36.984 41.426 36.98 41.414 36.969 41.398 36.934 41.398 36.84 41.398 36.656 41.492 36.656 41.492 36.656 41.492 36.375 41.586 36.285 41.68 36.191 41.68 35.91 41.586 35.91 41.586L35.445 41.215C35.445 41.215 35.168 40.934 35.168 40.844 35.168 40.75 34.887 40.656 34.887 40.469 34.887 40.285 34.797 40.375 34.703 40.191 34.609 40.098 34.516 39.539 34.422 39.445 34.422 39.352 34.516 39.168 34.516 38.98 34.609 38.887 34.703 38.703 34.703 38.609 34.797 38.516 35.168 37.586 35.262 37.492 35.352 37.398 35.352 37.309 35.445 37.215 35.539 37.121 35.539 37.027 35.539 37.027 35.539 36.934 35.633 36.84 35.633 36.84 35.633 36.75 35.727 36.656 35.727 36.562 35.727 36.469 35.262 35.91 35.262 35.91L34.887 35.633 34.609 35.539H33.957L32.75 35.445H32.375C32.191 35.445 31.633 35.168 31.727 35.074L31.816 34.98C31.91 34.98 32.004 34.793 32.098 34.793 32.191 34.793 32.281 34.609 32.375 34.609 32.469 34.516 32.656 33.863 32.84 33.586 32.941 33.434 32.961 33.391 32.988 33.387 32.996 33.383 33.008 33.387 33.023 33.387 33.043 33.395 33.07 33.398 33.121 33.398 33.305 33.305 33.215 33.305 33.305 33.215 33.398 33.121 33.398 32.934 33.586 32.746 33.68 32.656 33.773 32.562 33.957 32.469H34.145C34.328 32.375 34.609 32.281 34.609 32.281L35.074 32.098C35.074 32.098 35.445 32.004 35.633 32.004 35.82 32.004 36.004 32.098 36.004 32.098H36.191V32.281C36.191 32.281 36.285 32.375 36.375 32.375H36.84C36.934 32.375 37.309 32.469 37.309 32.469L37.586 32.656C37.586 32.656 37.773 32.746 37.863 32.84 37.957 32.84 38.238 33.027 38.238 33.027 38.238 33.027 38.422 33.215 38.609 33.215 38.703 33.215 39.262 33.68 39.262 33.68H39.539C39.633 33.68 39.91 33.863 39.727 33.957 39.633 34.051 39.355 34.145 39.355 34.145 39.355 34.145 39.539 34.328 39.633 34.328H40.191C40.191 34.328 40.656 34.238 40.844 34.238V34.422C40.844 34.422 40.844 34.609 41.121 34.793 41.402 34.887 41.309 34.887 41.586 34.887H41.957C42.145 34.887 42.145 34.887 42.332 34.98 42.445 35.039 42.453 35.023 42.484 34.984 42.508 34.961 42.535 34.926 42.609 34.887 42.668 34.832 42.652 34.773 42.637 34.695 42.625 34.645 42.609 34.586 42.609 34.516 42.609 34.328 42.332 34.328 42.332 34.328L41.957 34.238H42.145C42.145 34.238 42.238 34.422 42.332 34.051 42.332 34.051 42.516 34.051 42.051 33.77 41.586 33.492 41.492 33.398 41.402 33.398 41.309 33.398 41.215 33.492 41.121 33.492 40.934 33.492 41.027 33.398 40.844 33.305 40.77 33.27 40.754 33.277 40.742 33.281H40.738C40.73 33.285 40.711 33.27 40.562 33.121 40.484 33.039 40.523 33.012 40.543 32.996 40.551 32.992 40.555 32.992 40.555 32.988 40.551 32.98 40.488 32.977 40.191 32.934 39.633 32.84 39.91 32.934 39.539 32.746 39.168 32.562 39.445 32.562 39.168 32.469 38.98 32.375 38.887 32.375 38.703 32.281L38.332 32.098 38.145 32.004C37.773 31.91 37.68 31.91 37.68 31.91 37.68 31.91 37.586 31.91 37.492 31.816 37.465 31.789 37.461 31.762 37.461 31.738 37.453 31.676 37.449 31.633 37.121 31.633 36.75 31.633 36.75 31.539 36.562 31.539 36.469 31.539 36.285 31.633 36.098 31.633 35.91 31.633 35.82 31.633 35.633 31.539 35.539 31.445 35.168 31.633 35.074 31.727 34.887 31.816 34.887 31.727 34.703 31.816H34.516C34.516 31.727 34.609 31.727 34.609 31.633 34.703 31.539 34.609 31.445 34.609 31.445L34.422 31.168H33.863L33.68 31.258C33.68 31.258 33.305 31.352 33.215 31.352 33.188 31.352 33.152 31.359 33.105 31.367 32.98 31.387 32.793 31.422 32.656 31.352 32.562 31.258 32.469 31.352 32.469 31.352 32.375 31.352 32.191 31.445 32.191 31.445 32.191 31.445 32.004 31.633 31.91 31.633 31.816 31.727 31.539 31.91 31.352 32.098L31.168 32.281C31.168 32.375 30.98 32.469 30.98 32.469 30.98 32.562 30.609 32.746 30.609 32.84 30.516 32.934 30.145 33.027 30.051 33.027 29.957 33.027 29.77 32.934 29.77 32.934 29.77 32.934 29.492 32.934 29.398 32.84 29.336 32.777 29.273 32.801 29.215 32.82 29.184 32.832 29.152 32.84 29.121 32.84 29.027 32.84 28.281 32.934 28.098 33.027 28.004 33.027 27.816 32.934 27.633 32.84 27.539 32.746 27.445 32.656 27.445 32.562 27.445 32.469 27.168 31.727 27.168 31.539 27.227 31.414 27.207 31.375 27.188 31.332 27.176 31.312 27.168 31.289 27.168 31.258 27.168 31.168 27.258 30.98 27.258 30.887 27.352 30.793 27.445 29.77 27.445 29.77 27.539 29.68 27.633 29.211 27.816 29.121 28.004 29.027 27.91 28.934 28.004 28.84 28.004 28.746 28.098 28.656 28.191 28.562 28.281 28.469 28.469 28.375 28.656 28.188 28.84 28.098 29.027 27.539 29.121 27.445 29.305 27.258 29.398 27.074 29.398 27.074 29.398 27.074 29.492 26.793 29.586 26.699 29.68 26.609 29.77 26.609 29.957 26.609 30.145 26.609 30.793 26.422 30.887 26.422 30.98 26.422 31.168 26.234 31.258 26.234 31.352 26.234 31.445 26.051 31.539 26.051 31.633 26.051 31.816 25.863 32.191 25.863 32.254 25.848 32.305 25.836 32.344 25.824 32.449 25.797 32.484 25.789 32.504 25.797 32.52 25.809 32.527 25.828 32.562 25.863L32.934 25.957C33.027 25.957 33.215 25.863 33.305 25.863H34.051C34.145 25.863 34.797 25.957 35.168 25.957 35.445 25.957 35.352 25.863 35.445 25.77 35.539 25.676 35.82 25.492 35.91 25.492 35.934 25.492 35.957 25.488 35.992 25.48 36.109 25.461 36.332 25.418 36.84 25.492 37.277 25.555 37.254 25.574 37.25 25.582H37.246C37.246 25.586 37.258 25.586 37.309 25.586 37.492 25.586 37.492 25.586 37.68 25.492 37.863 25.492 38.332 25.586 38.516 25.77L38.703 25.957C38.797 26.051 39.074 25.957 39.262 25.863 39.445 25.863 39.539 25.957 39.633 26.145 39.727 26.234 39.727 26.234 39.91 26.328 40.098 26.422 40.004 26.422 40.191 26.516 40.285 26.609 40.285 26.699 40.285 26.699L40.098 27.074C40.004 27.258 40.004 27.258 39.91 27.352 39.859 27.406 39.867 27.461 39.883 27.566 39.895 27.645 39.91 27.754 39.91 27.91 39.91 28.281 39.91 28.188 40.004 28.281 40.098 28.469 40.098 28.469 40.098 28.562 40.098 28.656 40.098 28.746 40.191 29.027 40.285 29.305 40.379 29.305 40.469 29.398 40.562 29.398 40.75 29.305 40.934 29.211 41.121 29.121 41.215 28.934 41.215 28.84 41.309 28.746 41.309 28.469 41.402 28.375 41.492 28.281 41.492 28.188 41.492 27.91 41.531 27.836 41.539 27.82 41.535 27.816 41.531 27.816 41.531 27.816 41.527 27.816 41.516 27.816 41.492 27.816 41.492 27.723V26.328C41.492 26.234 41.492 25.957 41.586 25.863 41.586 25.77 41.68 25.676 41.68 25.586 41.68 25.492 41.773 25.305 41.867 25.211L42.145 24.934C42.238 24.934 42.422 24.746 42.516 24.652 42.609 24.562 42.891 24.562 42.98 24.469 43.074 24.469 43.539 24.188 43.727 24.098 43.914 24.004 43.914 24.004 44.004 24.004H44.379C44.469 24.004 44.656 24.004 44.75 23.91 44.844 23.91 45.027 23.816 45.027 23.816 45.027 23.816 45.309 23.723 45.492 23.723 45.586 23.723 45.773 23.629 45.867 23.629 45.961 23.629 46.797 23.352 46.891 23.258 46.984 23.258 46.984 23.074 46.984 23.074L47.168 22.793C47.168 22.793 47.262 22.328 47.355 22.234 47.449 22.141 48.008 21.676 48.098 21.582 48.191 21.492 48.191 21.492 48.473 21.492 48.75 21.492 48.656 21.492 48.844 21.398 49.027 21.305 49.027 21.211 49.215 21.117 49.402 21.027 49.402 21.027 49.68 20.934L50.051 20.746C50.238 20.652 50.332 20.652 50.52 20.559H51.262C51.262 20.559 52.285 20.84 52.473 20.84 52.656 20.84 52.473 20.652 52.473 20.652L52.379 20.469V20.094C52.473 20.004 52.473 19.91 52.656 19.816 52.75 19.723 52.938 19.629 53.402 19.723 53.961 19.723 53.867 19.629 53.961 19.629H54.332C54.359 19.629 54.516 19.598 54.723 19.555 55.223 19.453 56.035 19.285 56.102 19.352 56.191 19.352 56.285 19.445 56.285 19.445 56.285 19.535 55.914 19.629 55.914 19.629 55.914 19.629 55.82 19.816 55.914 19.91 56.008 20.094 56.008 20.094 56.285 20.188 56.414 20.25 56.582 20.184 56.707 20.137 56.766 20.113 56.816 20.094 56.844 20.094 56.938 20.094 57.309 20.004 57.402 20.004 57.59 20.004 57.773 19.91 57.867 19.91H58.984C59.078 19.91 59.355 19.816 59.543 19.723 59.637 19.723 59.82 19.535 59.82 19.535V19.258C59.82 19.258 59.355 19.445 59.262 19.445 59.172 19.535 58.984 19.535 58.984 19.535 58.984 19.535 58.797 19.535 58.332 19.445L57.867 19.352 57.68 19.258C57.59 19.258 57.402 19.07 57.402 19.07 57.402 19.07 57.215 18.793 57.215 18.699 57.215 18.605 57.125 18.328 57.125 18.328 57.125 18.328 57.125 18.234 57.215 18.234 57.309 18.234 57.402 18.141 57.496 18.141 57.59 18.141 57.68 17.957 57.68 17.957 57.68 17.957 57.496 17.77 57.402 17.77 57.309 17.77 56.844 17.676 56.844 17.676 56.75 17.676 56.473 17.492 56.473 17.492 56.473 17.398 56.656 17.398 56.75 17.398 56.777 17.398 56.812 17.391 56.859 17.383 56.984 17.359 57.172 17.328 57.309 17.398 57.496 17.492 57.59 17.398 57.773 17.492 57.961 17.492 57.961 17.492 58.148 17.582 58.426 17.676 58.426 17.676 58.613 17.676H58.891C58.984 17.676 59.078 17.77 59.449 17.863 59.727 17.957 59.727 17.957 59.914 17.957 60.008 17.957 60.75 17.957 60.844 17.863 60.938 17.863 61.031 17.77 61.125 17.77H61.59C61.684 17.77 61.867 17.863 61.961 17.863H62.707C62.797 17.863 62.75 17.84 62.684 17.805 62.613 17.77 62.52 17.723 62.52 17.676 62.582 17.676 62.559 17.594 62.539 17.512 62.531 17.469 62.52 17.43 62.52 17.398 62.52 17.352 62.449 17.281 62.391 17.223 62.332 17.164 62.285 17.117 62.332 17.117 62.426 17.117 61.961 16.84 61.961 16.84L61.309 16.559C61.309 16.559 60.566 16 60.473 16 60.379 16 60.195 15.91 60.195 15.816 60.102 15.723 59.914 15.535 59.914 15.445L61.309 15.723C75.449 18.793 86.801 27.723 93.406 39.445 94.059 40.375 94.801 41.492 95.453 42.703 95.824 41.215 95.918 39.727 95.641 38.422 93.73 35.008 91.449 31.824 88.836 28.934 95.523 29.695 100.367 31.992 102.059 35.816 106.523 45.492 90.43 61.684 65.402 73.219 64.473 73.59 63.637 74.055 62.707 74.426 61.773 74.801 60.844 75.266 59.914 75.637 58.891 76.008 57.961 76.473 56.938 76.848 56.102 77.219 55.168 77.496 54.332 77.871 54.238 77.871 54.238 77.871 54.145 77.961 52.379 78.613 50.703 79.172 49.027 79.73H48.938C48.098 80.008 47.262 80.289 46.426 80.477H46.238C44.562 80.941 42.891 81.406 41.309 81.871 41.215 81.871 41.215 81.871 41.121 81.965 40.285 82.148 39.539 82.336 38.703 82.52H38.609C37.773 82.707 36.934 82.895 36.191 83.078 27.539 84.848 19.723 85.5 13.582 84.754 18.516 87.637 26.699 88.477 36.656 87.266 36.656 87.332 36.656 87.352 36.652 87.352 36.648 87.355 36.648 87.352 36.645 87.348 36.633 87.336 36.609 87.312 36.562 87.359V87.637C36.562 87.73 36.562 87.73 36.469 87.918 36.469 88.102 36.375 88.102 36.285 88.289 36.191 88.477 36.191 88.477 36.191 88.66 36.191 88.848 36.285 88.941 36.285 88.941 36.285 89.035 36.098 89.219 36.098 89.219 36.098 89.219 35.727 90.059 35.727 90.148V90.43C35.727 90.43 35.633 90.523 35.633 90.801V91.266C35.727 91.359 35.633 91.547 35.633 91.547 35.633 91.547 35.445 91.824 35.445 91.918V92.195C35.445 92.195 34.98 92.664 35.445 93.219 35.758 93.594 35.652 93.551 35.551 93.508 35.496 93.488 35.445 93.469 35.445 93.5 35.445 93.594 35.633 93.871 35.727 93.871 35.816 93.965 35.816 94.152 35.816 94.152V94.43C35.91 94.523 35.816 94.523 35.91 94.617 36.004 94.617 36.004 94.707 36.004 94.801 36.098 94.895 36.098 95.082 36.098 95.176 36.098 95.266 36.191 95.359 36.191 95.453 36.191 95.547 36.469 95.73 36.469 95.824 36.469 95.918 36.562 96.105 36.656 96.199 36.75 96.199 37.027 96.57 37.121 96.57 37.215 96.57 37.121 96.664 37.215 96.664 37.309 96.664 38.051 97.035 38.145 97.129 38.238 97.129 38.332 97.223 38.516 97.312 38.703 97.312 38.887 97.406 38.887 97.406H39.355C39.355 97.406 39.633 97.5 39.727 97.5 39.82 97.5 40.004 97.312 40.004 97.312L39.82 97.129 39.539 97.035 39.262 96.941 38.98 96.848C38.98 96.848 38.887 96.754 38.797 96.754L38.609 96.57C38.609 96.57 38.422 96.289 38.422 96.199 38.422 96.105 38.145 95.824 38.051 95.547 37.992 95.375 38.008 95.379 38.027 95.387 38.039 95.391 38.051 95.395 38.051 95.359 38.051 95.266 38.051 95.266 38.145 95.266 38.203 95.266 38.188 95.23 38.168 95.184 38.156 95.152 38.145 95.117 38.145 95.082 38.145 94.988 38.051 94.801 38.051 94.801 38.051 94.707 37.957 94.152 37.957 94.152 37.957 94.152 38.051 93.965 38.332 93.777 38.504 93.664 38.496 93.656 38.492 93.645 38.484 93.637 38.48 93.629 38.516 93.594V93.406C38.516 93.312 38.609 93.312 38.887 92.941 39.117 92.637 39.16 92.645 39.219 92.656 39.23 92.66 39.242 92.664 39.262 92.664 39.355 92.664 39.355 92.57 39.539 92.477 39.727 92.383 39.82 92.383 39.91 92.289 40.004 92.195 40.098 92.012 40.191 92.012 40.285 91.918 40.004 91.824 40.004 91.824L39.727 91.73C39.727 91.73 39.539 91.641 39.445 91.641 39.355 91.641 39.355 91.359 39.262 91.359 39.262 91.266 39.168 90.707 39.168 90.523L39.355 90.336C39.445 90.242 39.727 90.148 39.91 90.148 40.004 90.148 40.191 90.059 40.379 90.059 40.562 90.059 40.562 89.871 40.562 89.871 40.562 89.871 40.75 89.684 40.75 89.594 40.75 89.406 40.844 89.312 40.934 89.219L41.215 88.941C41.215 88.848 41.398 88.848 41.398 88.848 41.492 88.848 41.773 88.754 41.773 88.754 41.773 88.754 42.051 88.57 42.051 88.477 42.051 88.383 41.773 88.383 41.773 88.383L41.309 88.289 41.121 88.102C41.121 88.102 41.027 87.547 41.027 87.453 41.027 87.359 41.215 86.895 41.215 86.895 41.215 86.895 41.309 86.895 41.398 86.988 41.492 87.078 41.68 87.172 41.68 87.266 41.773 87.359 41.957 87.359 41.957 87.453 42.051 87.547 42.516 87.547 42.609 87.547 42.703 87.547 42.891 87.547 42.98 87.172 43.074 86.801 43.074 86.895 43.074 86.707 43.168 86.523 43.168 86.43 43.168 86.43V86.336C43.633 86.242 44.098 86.148 44.656 86.059H44.75C44.938 86.059 45.215 86.059 45.402 86.148 45.492 86.148 45.586 86.148 45.867 86.242 46.051 86.242 46.426 86.148 46.516 86.059 46.609 85.965 46.703 85.871 46.797 85.684L46.891 85.59C53.586 84.012 60.75 81.59 68.008 78.52 96.664 66.055 115.641 47.355 110.898 36.375ZM41.773 33.492C41.773 33.492 41.957 33.68 42.051 33.68H42.609C42.609 33.68 43.074 33.586 43.262 33.586 43.445 33.586 43.633 33.68 43.633 33.68 43.633 33.68 44.004 33.773 44.098 33.773H44.469C44.469 33.773 44.562 33.957 44.656 33.586 44.656 33.586 44.844 33.586 44.379 33.215 44.332 33.176 44.289 33.145 44.25 33.113 43.895 32.824 43.809 32.758 43.727 32.84H43.539C43.355 32.84 43.445 32.75 43.262 32.656L42.98 32.469C42.902 32.391 42.941 32.363 42.969 32.34 43.008 32.312 43.023 32.297 42.703 32.191 42.145 32.098 42.422 32.191 42.051 32.004 41.773 31.816 41.957 31.816 41.773 31.727 41.586 31.633 41.492 31.633 41.309 31.445L40.934 31.258 40.75 31.168C40.562 31.074 40.469 31.074 40.469 31.074L40.285 30.98C40.254 30.949 40.254 30.918 40.254 30.891 40.254 30.836 40.254 30.793 40.004 30.793 39.633 30.793 39.633 30.703 39.445 30.703 39.355 30.703 39.168 30.793 38.98 30.793 38.797 30.793 38.703 30.703 38.516 30.703 38.461 30.645 38.305 30.691 38.148 30.734 38.043 30.766 37.941 30.793 37.863 30.793 37.68 30.887 37.68 30.793 37.492 30.887 37.215 30.98 37.398 30.887 37.027 30.98 36.75 31.074 36.656 31.258 36.562 31.352 36.469 31.352 36.562 31.445 36.75 31.445 36.934 31.352 37.215 31.258 37.215 31.258L37.68 31.168C37.68 31.168 38.051 31.074 38.238 31.074 38.422 31.074 38.609 31.168 38.609 31.168H38.887V31.352C38.887 31.352 38.98 31.445 39.074 31.445 39.168 31.539 39.445 31.539 39.539 31.539 39.633 31.539 40.004 31.633 40.004 31.633L40.285 31.816C40.285 31.816 40.469 32.004 40.562 32.004 40.656 32.004 40.844 32.191 40.844 32.191 40.844 32.191 41.027 32.375 41.121 32.375 41.215 32.469 41.68 32.84 41.68 32.84 41.68 32.84 41.867 32.934 41.957 32.934 42.051 32.934 42.238 33.121 42.145 33.215 42.051 33.398 41.773 33.492 41.773 33.492ZM46.797 35.727C46.891 35.633 47.168 35.539 47.168 35.539 47.332 35.621 47.703 35.699 47.859 35.719 47.844 35.723 47.832 35.727 47.82 35.727 47.766 35.727 47.707 35.707 47.656 35.691 47.531 35.656 47.418 35.621 47.355 35.816 47.262 36.098 48.379 36.656 48.379 36.656L48.75 36.562 49.121 36.375V36.191L49.027 35.91C48.941 35.91 48.871 35.891 48.816 35.867L49.027 35.727C49.027 35.727 49.027 35.539 48.844 35.352 48.75 35.262 48.75 35.168 48.656 35.168 48.562 35.168 48.562 35.074 48.379 34.98 48.285 34.887 48.285 34.793 48.098 34.703 48.062 34.668 48.121 34.656 48.172 34.652 48.254 34.641 48.316 34.629 47.914 34.516 47.516 34.344 47.465 34.348 47.359 34.355 47.289 34.359 47.199 34.367 46.98 34.328 46.426 34.145 46.332 34.145 46.238 34.051L45.867 33.957C45.215 33.863 45.121 33.957 45.215 34.051 45.309 34.145 45.492 34.238 45.492 34.328 45.492 34.422 45.586 34.516 45.586 34.609V34.793C45.492 34.793 45.492 34.793 45.402 34.703 45.039 34.598 44.965 34.609 44.871 34.625 44.801 34.637 44.719 34.648 44.469 34.609 43.914 34.516 43.82 34.422 43.727 34.422H43.355C42.703 34.328 42.609 34.422 42.703 34.516 42.797 34.609 42.98 34.703 43.074 34.793 43.074 34.832 43.105 34.871 43.133 34.906 43.18 34.961 43.223 35.02 43.168 35.074 43.168 35.109 43.18 35.145 43.191 35.176 43.211 35.223 43.227 35.262 43.168 35.262 43.141 35.262 43.117 35.266 43.086 35.277 43.008 35.297 42.902 35.328 42.703 35.262 42.422 35.262 42.332 35.262 42.051 35.168 41.93 35.168 41.879 35.148 41.844 35.137 41.801 35.121 41.785 35.113 41.68 35.168 41.633 35.191 41.582 35.211 41.543 35.223 41.43 35.266 41.379 35.285 41.586 35.352 41.773 35.445 41.867 35.633 42.051 35.633H42.703C42.727 35.633 42.762 35.602 42.809 35.562 42.941 35.449 43.168 35.262 43.445 35.539 43.605 35.695 43.711 35.836 43.789 35.941 43.898 36.082 43.953 36.152 44.004 36.098 44.098 36.098 44.469 36.004 44.469 35.91 44.469 35.816 44.844 35.633 44.844 35.633 45.121 35.727 45.492 35.816 45.586 35.816 45.68 35.816 46.426 35.91 46.426 35.91L46.684 35.738C46.711 35.77 46.797 35.727 46.797 35.727ZM40.098 35.352C39.91 35.168 39.633 35.168 39.633 35.168L39.262 35.074 38.887 34.98H38.516L38.238 35.074 38.332 35.262C38.332 35.262 38.422 35.445 38.609 35.633 38.887 35.727 38.797 35.727 39.074 35.727H39.445C39.633 35.727 39.633 35.727 39.82 35.816 39.934 35.875 39.941 35.863 39.973 35.824 39.996 35.797 40.023 35.762 40.098 35.727 40.156 35.668 40.141 35.609 40.125 35.531 40.113 35.48 40.098 35.426 40.098 35.352ZM50.984 35.91C50.891 35.91 50.797 35.91 50.609 35.816 50.332 35.727 50.238 35.727 50.145 35.727 50.078 35.727 50.016 35.691 49.953 35.656 49.84 35.598 49.742 35.547 49.68 35.727 49.586 36.004 50.703 36.562 50.703 36.562H51.074L51.449 36.469V36.285L51.355 36.004C51.262 36.004 51.074 35.91 50.984 35.91ZM61.215 55.262C61.309 55.355 61.309 55.449 61.402 55.633 61.527 55.758 61.566 55.719 61.609 55.676 61.629 55.656 61.652 55.633 61.684 55.633 61.707 55.633 61.75 55.629 61.809 55.621 61.984 55.602 62.262 55.566 62.332 55.633 62.426 55.633 62.52 55.543 62.613 55.449 62.707 55.355 62.707 55.262 62.797 55.168 62.891 55.078 62.891 54.984 62.984 54.984 62.984 54.957 62.977 54.926 62.965 54.895 62.945 54.824 62.918 54.742 62.984 54.609 62.984 54.52 62.707 54.52 62.613 54.426H62.238C62.148 54.426 62.055 54.332 62.055 54.332L61.867 54.238H61.684C61.684 54.238 61.496 54.238 61.402 54.145 61.309 54.145 61.309 54.238 61.309 54.238L61.215 54.426 61.125 54.797C61.07 54.957 61.078 54.965 61.094 54.977 61.105 54.984 61.125 54.996 61.125 55.078 61.031 55.078 61.125 55.168 61.215 55.262ZM61.215 55.262" fill="#df1995" fill-rule="evenodd"/>
</g>
</svg>
